<svg width="914" height="794" viewBox="0 0 914 794" fill="none" xmlns="http://www.w3.org/2000/svg">
<g clip-path="url(#clip0_31_2)" filter="url(#filter0_d_31_2)">
<path opacity="0.1" d="M850.55 454.04C816.07 509.04 823.02 584.15 838.63 643.45C843.86 663.3 849.87 684.27 845.63 706.45C840.44 733.55 821.07 754.75 801.41 766.81C765.57 788.81 724.51 787.95 694.49 764.59C668.55 744.4 651.35 709.36 624.87 690.25C580.56 658.25 520.17 677.16 467.77 706.53C430.7 727.31 389.93 753.68 355.49 738.43C331.26 727.7 316.01 697.73 308.79 665.17C305.3 649.45 303.16 632.29 295.3 620.28C290.63 613.14 284.23 608.34 277.6 604.41C217.13 568.48 135.76 597.78 77.4 557.15C37.99 529.71 15.35 473.38 7.67001 413.23C-0.00999093 353.08 5.67 288.8 12.85 225.52C17.96 180.52 24.96 132.4 48.85 95.93C74.15 57.35 114.29 40.28 149.28 44.09C184.27 47.9 214.76 69.83 241.08 96.5C273.98 129.83 303.72 172.34 346.08 183.27C374.95 190.71 406.4 182.46 437 177.86C488.22 170.16 538.72 172.74 588.87 176.04C636.87 179.17 685.18 183.04 729.99 199.83C761.7 211.72 786.12 236.24 815.74 252.26C835.05 262.7 856.74 264.14 874.74 278.02C896.93 295.12 916.22 326.57 907.6 366.14C899.45 403.73 868.87 424.94 850.55 454.04Z" fill="#00BFA6"/>
<path d="M305.12 587.31C318.86 591.11 331.97 596.84 346.23 598.78C379.72 603.33 411.43 586.6 444.06 578.78C519.73 560.6 599.47 590.7 678.06 589.05C699.82 588.59 723.96 586.27 741.06 597.67C746.95 601.59 751.59 606.95 758.27 609.8C772.12 615.72 792.21 609.96 802.03 620.14C811.52 629.98 802.2 645.97 809.69 656.99C817.36 668.28 840.87 672.38 838.36 685.24C837.23 691.02 830.76 694.73 826.68 699.46C817.56 710.01 820.8 725.2 813.68 736.82C803.68 753.28 777.35 756.51 755.78 753.68C734.21 750.85 712.38 744.08 691.13 748.32C658.47 754.84 634.13 786.16 600.87 782.32C585.31 780.51 571.16 770.83 555.59 772.6C548.04 773.46 541.33 776.96 534.37 779.6C513.638 787.305 490.939 787.938 469.81 781.4C457.81 777.6 447.01 771.57 435.41 766.98C412.41 757.85 386.57 754.58 361.15 754.78C328.59 755.04 292.15 759.88 266.79 742.55C255.03 734.55 246.95 722.31 233.08 717.26C220.5 712.68 206.08 715.08 192.71 717.58C179.34 720.08 164.96 722.58 152.32 718.08C139.68 713.58 131.24 699.08 139.73 689.93C142.81 686.62 147.46 684.63 150.73 681.48C157.58 674.94 156.53 663.59 148.56 658.04C144.3 655.04 138.38 653.51 135.75 649.4C128.8 638.56 150.67 630.77 156.17 619.4C158.96 613.61 157.17 607.02 157.95 600.8C159.34 589.8 169.81 580.1 182.58 577.95C194.53 575.95 199.23 582.56 209.03 584.29C219.42 586.13 220.45 586.36 233.77 584.73C258.39 581.67 281.05 580.65 305.12 587.31Z" fill="#635151"/>
<path d="M645.37 0.200012C645.37 0.200012 554.97 90.6 606 224.75C657.03 358.9 518.51 581.98 518.51 581.98C518.51 581.98 519.99 581.76 522.75 581.28C708.42 548.51 800.68 336.15 697.43 178.39C659.05 119.75 627.55 50.95 645.37 0.200012Z" fill="#00BFA6"/>
<path opacity="0.1" d="M645.37 1.70001C645.37 1.70001 554.97 92.1 606 226.25C657.03 360.4 518.51 583.48 518.51 583.48C518.51 583.48 519.99 583.26 522.75 582.78C708.43 550.04 800.68 337.65 697.44 179.89C659.05 121.24 627.55 52.44 645.37 1.70001Z" fill="black"/>
<path d="M645.37 0.200012C645.37 0.200012 594.37 111.02 645.37 201.42C696.37 291.82 654.12 545.53 518.52 581.98" stroke="#535461" stroke-miterlimit="10"/>
<path d="M806.39 365.85C806.39 365.85 703.23 349.42 693.83 441.85C684.43 534.28 495.46 547.14 495.46 547.14C495.46 547.14 496.69 547.98 499 549.5C655 651.92 804.17 614.74 781.69 478.74C773.34 428.17 774.02 377.39 806.39 365.85Z" fill="#00BFA6"/>
<path d="M806.39 365.85C806.39 365.85 726.32 383.43 732.89 456.23C739.46 529.03 613.98 616.32 495.46 547.14" stroke="#535461" stroke-miterlimit="10"/>
<path d="M629.18 604.69H219.96V248.43C219.96 135.43 311.57 43.82 424.57 43.82C537.57 43.82 629.18 135.43 629.18 248.43V604.69Z" fill="#A1A1AA"/>
<path opacity="0.1" d="M566.37 280.93H282.77C279.986 280.93 277.73 283.186 277.73 285.97V292.74C277.73 295.523 279.986 297.78 282.77 297.78H566.37C569.153 297.78 571.41 295.523 571.41 292.74V285.97C571.41 283.186 569.153 280.93 566.37 280.93Z" fill="black"/>
<path opacity="0.1" d="M536.28 315.83H312.86C310.076 315.83 307.82 318.086 307.82 320.87V327.64C307.82 330.423 310.076 332.68 312.86 332.68H536.28C539.064 332.68 541.32 330.423 541.32 327.64V320.87C541.32 318.086 539.064 315.83 536.28 315.83Z" fill="black"/>
<path d="M217.67 627.79C217.67 627.79 241.96 462.55 227.28 403.19C212.6 343.83 208.67 284.94 208.67 284.94" stroke="#535461" stroke-width="2" stroke-miterlimit="10"/>
<path d="M276.49 386.45L226.87 413.95C226.87 413.95 275.42 448.9 276.49 386.45Z" fill="#00BFA6"/>
<path d="M173.62 398.19L229.16 412.65C229.16 412.65 185.62 457.43 173.62 398.19Z" fill="#00BFA6"/>
<path d="M262.94 338.46L219.23 365.46C219.23 365.46 275.13 380.47 262.94 338.46Z" fill="#00BFA6"/>
<path d="M178.66 356.38L218.99 364.2C218.99 364.2 188.77 396.68 178.66 356.38Z" fill="#00BFA6"/>
<path d="M211.99 317.99C211.99 317.99 245.59 290.84 252.06 290.58C258.53 290.32 266.06 315.97 251.16 323.94C236.26 331.91 211.99 317.99 211.99 317.99Z" fill="#00BFA6"/>
<path d="M173.51 300.67C173.51 300.67 208 312.93 211.51 317.93C215.02 322.93 200.09 345.45 180.75 331.69C161.41 317.93 173.51 300.67 173.51 300.67Z" fill="#00BFA6"/>
<path d="M224.461 293.704C230.531 290.988 233.251 283.867 230.536 277.797C227.821 271.727 220.699 269.007 214.629 271.723C208.559 274.438 205.839 281.56 208.555 287.629C211.27 293.699 218.392 296.419 224.461 293.704Z" fill="#FFD037"/>
<path d="M202.231 297.058C208.301 294.343 211.021 287.221 208.305 281.151C205.59 275.081 198.468 272.362 192.399 275.077C186.329 277.792 183.609 284.914 186.324 290.984C189.04 297.054 196.161 299.773 202.231 297.058Z" fill="#FFD037"/>
<path d="M603.67 640.04C603.67 640.04 426.57 600.46 651.87 368.78C651.87 368.78 749.01 460.84 713.37 575.28C699.04 621.28 652.95 649.7 606.27 640.6L603.67 640.04Z" fill="#00BFA6"/>
<path opacity="0.2" d="M603.67 640.04C599.78 639.17 430.38 596.53 651.91 368.76C651.91 368.76 749.05 460.82 713.41 575.26C699.08 621.26 652.99 649.68 606.31 640.58L603.67 640.04Z" fill="white"/>
<path d="M605.99 641.37C605.99 641.37 699.53 500.45 651.87 368.78" stroke="#535461" stroke-miterlimit="10"/>
<path d="M718.82 642.23C718.82 642.23 676.37 633.74 665.05 622.42C653.73 611.1 602.79 591.29 597.13 605.42C591.47 619.55 520.71 667.68 568.83 676.17C616.95 684.66 682.04 687.49 696.19 681.83C710.34 676.17 718.82 642.23 718.82 642.23Z" fill="#A8A8A8"/>
<path opacity="0.2" d="M568.82 670.93C616.93 679.42 682.03 682.25 696.18 676.59C706.96 672.28 714.45 651.59 717.41 641.93L718.83 642.23C718.83 642.23 710.34 676.23 696.19 681.85C682.04 687.47 616.94 684.68 568.83 676.19C554.94 673.74 550.97 667.98 552.47 660.7C553.64 665.45 558.48 669.11 568.82 670.93Z" fill="black"/>
<path d="M184.33 583.41C184.33 583.41 206.74 582.72 213.49 577.91C220.24 573.1 247.96 567.36 249.63 575.07C251.3 582.78 283.3 613.42 258.01 613.63C232.72 613.84 199.23 609.69 192.49 605.63C185.75 601.57 184.33 583.41 184.33 583.41Z" fill="#A8A8A8"/>
<path opacity="0.2" d="M258.46 610.94C233.16 611.14 199.68 607 192.94 602.94C187.81 599.81 185.76 588.6 185.08 583.42H184.33C184.33 583.42 185.75 601.49 192.49 605.6C199.23 609.71 232.71 613.85 258.01 613.6C265.31 613.54 267.83 610.94 267.7 607.1C266.68 609.45 263.87 610.9 258.46 610.94Z" fill="black"/>
<path d="M338.77 690.38C338.77 690.38 349.22 690.06 352.38 687.81C355.54 685.56 368.46 682.89 369.24 686.49C370.02 690.09 384.95 704.39 373.15 704.49C361.35 704.59 345.73 702.65 342.58 700.74C339.43 698.83 338.77 690.38 338.77 690.38Z" fill="#A8A8A8"/>
<path opacity="0.2" d="M373.36 703.23C361.56 703.33 345.94 701.39 342.79 699.48C340.4 698.02 339.44 692.79 339.12 690.37H338.77C338.77 690.37 339.43 698.8 342.58 700.72C345.73 702.64 361.35 704.57 373.15 704.47C376.56 704.47 377.73 703.23 377.67 701.47C377.19 702.53 375.87 703.2 373.36 703.23Z" fill="black"/>
<path d="M349.38 288.31L354.1 268.74H368.98L367.88 285.28L349.38 288.31Z" fill="#535461"/>
<path d="M430.18 270.39L441.75 251.09L456.09 259.36L445.62 280.31L430.18 270.39Z" fill="#535461"/>
<path d="M502.95 315.59C502.95 315.59 515.63 305.67 527.21 312.83C538.79 319.99 515.08 333.23 515.08 333.23L502.95 315.59Z" fill="#535461"/>
<path d="M564.62 374.59L590.61 376.79L581.79 384.51L564.62 374.59Z" fill="#535461"/>
<path d="M337.28 396.36L333.42 373.21H340.59L347.76 389.75L337.28 396.36Z" fill="#535461"/>
<path d="M334.8 619.92C334.8 619.92 351.89 630.39 344.72 634.81C337.55 639.23 334.25 640.87 328.18 638.67C322.11 636.47 319.87 643.04 319.87 643.04C319.87 643.04 343.58 644.69 346.33 650.76C349.08 656.83 341.92 662.34 341.92 662.34L358.46 654.62L366.18 662.34C366.18 662.34 368.39 669.51 357.91 668.96C357.91 668.96 367.28 675.58 390.44 668.96C413.6 662.34 427.38 675.58 427.38 675.58C427.38 675.58 426.28 685.5 422.38 686.05C418.48 686.6 434.51 687.7 437.27 681.05C440.03 674.4 454.36 673.33 454.36 673.33L465.36 682.7L473.08 674.43C473.08 674.43 496.23 667.81 500.08 672.78C503.93 677.75 506.7 660.65 506.7 660.65C506.7 660.65 508.91 649.07 537.02 652.93C565.13 656.79 571.2 649.62 571.2 649.62L534.92 643.04C534.92 643.04 525 638.04 536.02 623.19C547.04 608.34 547.02 595.62 547.02 595.62L530.48 612.16L527.17 623.16L516.7 628.67C516.7 628.67 522.21 613.23 521.11 609.37C520.01 605.51 521.66 586.22 521.66 586.22L513.39 590.08H504.57C504.57 590.08 496.85 583.46 504.57 576.85C512.29 570.24 520.57 540.46 520.57 540.46L499.62 575.19C499.62 575.19 495.21 588.42 489.15 585.66C483.09 582.9 469.85 600.55 473.15 605.51C476.45 610.47 482.52 619.84 477.56 624.25C472.6 628.66 463.23 625.35 463.23 625.35L461.58 610.46L448.37 631.49C448.37 631.49 434.59 621.57 441.75 617.16C448.91 612.75 451.67 602.83 448.37 603.38C445.07 603.93 439 605.59 435.14 606.14C431.28 606.69 417.5 600.63 426.87 596.22C436.24 591.81 435.69 581.89 436.24 579.68C436.79 577.47 420.8 584.68 420.8 584.68C420.8 584.68 418.59 606.18 420.25 608.39C421.91 610.6 430.17 615.01 427.42 622.17C424.67 629.33 418.6 641.47 415.29 638.17C411.98 634.87 409.78 635.96 407.02 627.7C404.26 619.44 405.37 600.7 410.33 594.07C415.29 587.44 421.87 568.64 423.56 563.13C425.25 557.62 422.46 552.13 418.05 555.41C413.64 558.69 411.99 558.72 407.05 565.88C402.11 573.04 397.68 570.88 399.88 562.57C402.08 554.26 391.61 543.27 390.51 549.34C389.41 555.41 389.96 579.66 389.96 579.66C389.96 579.66 378.96 570.29 377.83 576.35C376.7 582.41 383.34 593.44 376.73 594.54C370.12 595.64 357.43 585.17 356.88 588.48C356.33 591.79 348.06 575.25 343.65 577.48C339.24 579.71 339.24 590.16 343.65 596.22C348.06 602.28 355.78 605.04 350.82 610.55C345.86 616.06 341.45 597.87 334.28 598.97C327.11 600.07 334.8 619.92 334.8 619.92Z" fill="#635151"/>
<path d="M348.03 531.15C348.03 531.15 346.38 541.62 350.24 544.38C354.1 547.14 353.54 535.04 348.03 531.15Z" fill="#635151"/>
<path d="M355.75 541.63L370.08 544.94C370.08 544.94 361.81 554.31 362.91 554.86C364.01 555.41 375.59 558.72 372.28 563.13C368.97 567.54 363.46 566.44 360.7 564.78C357.94 563.12 351.88 558.72 354.08 555.96C356.28 553.2 355.75 541.63 355.75 541.63Z" fill="#635151"/>
<path d="M339.76 553.76C339.76 553.76 345.27 555.97 345.82 558.17C346.37 560.37 353.54 557.07 351.33 553.76C349.12 550.45 339.76 553.76 339.76 553.76Z" fill="#635151"/>
<path d="M334.25 558.73L332.05 564.24H337.01L334.25 558.73Z" fill="#635151"/>
<path d="M337.01 572.51H341.97L337.01 575.26V572.51Z" fill="#635151"/>
<path d="M319.87 577.46C319.87 577.46 317.11 583.52 321.52 588.46C325.93 593.4 324.83 577.99 325.38 577.46C325.93 576.93 319.87 577.46 319.87 577.46Z" fill="#635151"/>
<path d="M464.87 584.04C464.87 584.04 463.77 592.86 467.08 593.41C470.39 593.96 468.77 587.94 464.87 584.04Z" fill="#635151"/>
<path d="M452.23 598.41L456.64 593.41C456.64 593.41 466.56 597.82 466.56 598.41C466.56 599 467.66 602.82 466.56 604.47C465.46 606.12 463.8 609.47 461.05 607.78C458.3 606.09 452.23 600.61 452.23 600.61V598.41Z" fill="#635151"/>
<path d="M410.88 602.83V605.59H413.09L410.88 602.83Z" fill="#635151"/>
<path d="M410.87 613.3V621.57C410.87 621.57 415.28 624.88 415.28 621.57C415.28 618.26 410.87 613.3 410.87 613.3Z" fill="#635151"/>
<path d="M415.29 606.68C415.29 606.68 416.39 618.81 418.05 619.36C419.71 619.91 418.05 614.36 418.05 614.36L418.6 609.36L415.29 606.68Z" fill="#635151"/>
<path d="M471.53 614.96H468.77V619.37H471.53V614.96Z" fill="#635151"/>
<path d="M452.23 584.08H448.37V591.25H452.23V584.08Z" fill="#635151"/>
<path opacity="0.1" d="M388.87 423.65C388.87 423.65 392.73 414.83 394.93 415.38" stroke="black" stroke-width="2" stroke-miterlimit="10"/>
<path opacity="0.1" d="M450.57 467.75C450.57 467.75 394.11 437.4 390.92 419.5Z" fill="black"/>
<path opacity="0.1" d="M411.43 408.76C411.43 408.76 450.02 442.39 452.23 456.76Z" fill="black"/>
<path opacity="0.1" d="M413.64 398.29C413.64 398.29 429.64 402.7 439 415.38C448.36 428.06 469.87 447.38 474.84 447.38" fill="black"/>
<path opacity="0.1" d="M453.87 403.25C453.87 403.25 483.09 414.83 481.99 422.55C481.99 422.55 470.41 410.42 462.14 412.63C453.87 414.84 453.87 403.25 453.87 403.25Z" fill="black"/>
<path opacity="0.1" d="M388.87 452.87C388.87 452.87 400.45 460.59 398.79 465.55C397.13 470.51 397.14 479.88 397.14 479.88" stroke="black" stroke-width="2" stroke-miterlimit="10"/>
<path opacity="0.1" d="M363.47 474.37L364.57 479.88C364.57 479.88 367.88 478.23 368.43 479.88C368.98 481.53 372.84 485.39 372.84 485.39L375.05 482.08L363.47 474.37Z" fill="black"/>
<path opacity="0.1" d="M335.9 422.55L321.95 436.8" stroke="black" stroke-width="2" stroke-miterlimit="10"/>
<path opacity="0.1" d="M333.7 436.88C333.618 439.178 333.056 441.433 332.05 443.5C330.4 446.81 326.91 445.36 326.91 445.36" stroke="black" stroke-width="2" stroke-miterlimit="10"/>
<path opacity="0.1" d="M338.66 431.37C338.66 431.37 352.44 418.69 359.61 426.37L362.7 432.71C359.169 430.382 355.084 429.032 350.861 428.796C346.638 428.561 342.428 429.449 338.66 431.37Z" fill="black"/>
<path opacity="0.1" d="M401.51 333.24C401.51 333.24 411.98 330.48 416.4 333.24" stroke="black" stroke-width="2" stroke-miterlimit="10"/>
<path opacity="0.1" d="M367.87 294.64C367.87 294.64 364.01 304.01 365.11 312.83" stroke="black" stroke-width="2" stroke-miterlimit="10"/>
<path opacity="0.1" d="M348.03 322.21C348.03 322.21 343.62 329.93 351.89 342.61" stroke="black" stroke-width="2" stroke-miterlimit="10"/>
<path opacity="0.1" d="M354.1 353.09L362.92 347.02V349.78L354.1 353.09Z" fill="black"/>
<path opacity="0.1" d="M377.8 381.75L388.83 379.55" stroke="black" stroke-width="2" stroke-miterlimit="10"/>
<path opacity="0.1" d="M374.49 387.26C374.49 387.26 389.38 381.75 391.03 382.85C392.68 383.95 397.09 381.75 397.09 381.75" stroke="black" stroke-width="2" stroke-miterlimit="10"/>
<path opacity="0.1" d="M408.67 338.75C408.67 338.75 421.9 332.69 429.07 344.26" stroke="black" stroke-width="2" stroke-miterlimit="10"/>
<path opacity="0.1" d="M349.13 316.7C349.13 316.7 364.02 313.94 368.98 318.35" stroke="black" stroke-width="2" stroke-miterlimit="10"/>
<path opacity="0.1" d="M445.61 285.27C445.61 285.27 441.75 297.95 434.61 303.46" stroke="black" stroke-width="2" stroke-miterlimit="10"/>
<path opacity="0.1" d="M465.46 349.77C465.46 349.77 474.28 371.27 489.17 367.41Z" fill="black"/>
<path opacity="0.1" d="M494.68 504.69C494.68 504.69 511.41 490.91 512.68 474.37Z" fill="black"/>
<path opacity="0.1" d="M493.58 445.71L509.67 441.28" stroke="black" stroke-width="2" stroke-miterlimit="10"/>
<path opacity="0.1" d="M426.32 523.44C426.32 523.44 453.32 514.62 453.89 479.89Z" fill="black"/>
<path opacity="0.1" d="M442.31 570.3L445.61 523.44" stroke="black" stroke-width="2" stroke-miterlimit="10"/>
<path opacity="0.1" d="M452.23 568.1L457.19 523.44" stroke="black" stroke-width="2" stroke-miterlimit="10"/>
</g>
<defs>
<filter id="filter0_d_31_2" x="0" y="0" width="913.75" height="793.88" filterUnits="userSpaceOnUse" color-interpolation-filters="sRGB">
<feFlood flood-opacity="0" result="BackgroundImageFix"/>
<feColorMatrix in="SourceAlpha" type="matrix" values="0 0 0 0 0 0 0 0 0 0 0 0 0 0 0 0 0 0 127 0" result="hardAlpha"/>
<feOffset dy="4"/>
<feGaussianBlur stdDeviation="2"/>
<feComposite in2="hardAlpha" operator="out"/>
<feColorMatrix type="matrix" values="0 0 0 0 0 0 0 0 0 0 0 0 0 0 0 0 0 0 0.25 0"/>
<feBlend mode="normal" in2="BackgroundImageFix" result="effect1_dropShadow_31_2"/>
<feBlend mode="normal" in="SourceGraphic" in2="effect1_dropShadow_31_2" result="shape"/>
</filter>
<clipPath id="clip0_31_2">
<rect width="905.75" height="785.88" fill="white" transform="translate(4)"/>
</clipPath>
</defs>
</svg>
